<?xml version="1.0" encoding="UTF-8"?>
<svg width="1200pt" height="1200pt" version="1.1" viewBox="0 0 1200 1200" xmlns="http://www.w3.org/2000/svg">
 <path d="m909.6 360c-1.1992-2.3984-2.3984-4.8008-4.8008-7.1992-2.3984-3.6016-4.8008-6-7.1992-8.3984-8.3984-9.6016-18-18-28.801-24-9.6016-6-21.602-9.6016-32.398-12-2.3984 0-3.6016-1.1992-6-1.1992h-4.8008c-6-1.1992-12-1.1992-18 0-4.8008 0-9.6016 1.1992-14.398 1.1992-4.8008 1.1992-9.6016 2.3984-13.199 3.6016-3.6016 1.1992-7.1992 2.3984-9.6016 3.6016-2.3984 1.1992-4.8008 2.3984-6 3.6016-1.1992 0-2.3984 1.1992-2.3984 1.1992-30 16.801-62.398 27.602-97.199 33.602-21.602 3.6016-43.199 4.8008-64.801 4.8008-21.602 0-43.199-1.1992-66-4.8008-33.602-4.8008-67.199-16.801-97.199-32.398-1.1992 0-1.1992-1.1992-2.3984-1.1992s-1.1992-1.1992-2.3984-1.1992c-1.1992-1.1992-2.3984-1.1992-4.8008-2.3984-1.1992-1.1992-3.6016-1.1992-4.8008-2.3984-1.1992 0-1.1992 0-2.3984-1.1992-1.1992 0-2.3984-1.1992-3.6016-1.1992-1.1992 0-3.6016-1.1992-6-1.1992-1.1992 0-3.6016-1.1992-6-1.1992s-3.6016-1.1992-6-1.1992h-3.6016c-2.3984 0-4.8008-1.1992-6-1.1992h-7.1992-1.1992-6c-2.3984 0-4.8008 0-7.1992 1.1992-4.8008 0-8.3984 1.1992-13.199 2.3984-2.3984 0-3.6016 1.1992-6 1.1992-1.1992 0-2.3984 1.1992-3.6016 1.1992-2.3984 1.1992-3.6016 1.1992-6 2.3984s-3.6016 1.1992-6 2.3984-6 2.3984-8.3984 4.8008c-2.3984 2.3984-6 3.6016-8.3984 6-1.1992 1.1992-2.3984 2.3984-3.6016 3.6016-1.1992 1.1992-2.3984 2.3984-3.6016 3.6016-1.1992 1.1992-2.3984 2.3984-3.6016 3.6016-1.1992 1.1992-2.3984 2.3984-2.3984 2.3984-1.1992 1.1992-2.3984 2.3984-2.3984 3.6016-1.1992 1.1992-2.3984 3.6016-4.8008 4.8008-13.199 18-21.602 40.801-21.602 64.801 0 18 3.6016 33.602 12 48 1.1992 1.1992 1.1992 3.6016 2.3984 4.8008 0 1.1992 1.1992 1.1992 1.1992 2.3984 2.3984 2.3984 3.6016 6 6 8.3984 8.3984 10.801 19.199 20.398 30 27.602 30 18 56.398 40.801 79.199 68.398 13.199 16.801 26.398 34.801 37.199 54 10.801 19.199 20.398 38.398 28.801 58.801 12 31.199 19.199 64.801 20.398 97.199v4.8008 6c0 2.3984 0 4.8008 1.1992 8.3984 0 1.1992 1.1992 3.6016 1.1992 4.8008 1.1992 4.8008 2.3984 9.6016 3.6016 14.398 1.1992 2.3984 1.1992 3.6016 2.3984 4.8008 1.1992 4.8008 3.6016 8.3984 6 12 2.3984 4.8008 4.8008 8.3984 8.3984 12 1.1992 2.3984 3.6016 3.6016 4.8008 6 1.1992 1.1992 3.6016 3.6016 4.8008 4.8008 6 6 13.199 12 21.602 16.801 2.3984 1.1992 4.8008 2.3984 7.1992 3.6016 3.6016 2.3984 8.3984 3.6016 13.199 4.8008h1.1992c6 2.3984 12 3.6016 19.199 4.8008h1.1992c22.801 2.3984 46.801-1.1992 68.398-13.199 21.602-12 36-31.199 45.602-52.801 0 0 0-1.1992 1.1992-1.1992 1.1992-3.6016 2.3984-8.3984 3.6016-12 0-2.3984 1.1992-4.8008 1.1992-6 1.1992-3.6016 1.1992-6 1.1992-9.6016v-9.6016-2.3984c1.1992-33.602 7.1992-68.398 20.398-99.602 8.3984-20.398 18-39.602 28.801-58.801 10.801-19.199 22.801-37.199 37.199-54 21.602-27.602 48-50.398 78-68.398 2.3984-2.3984 6-3.6016 8.3984-6 1.1992-1.1992 2.3984-2.3984 3.6016-3.6016l3.6016-3.6016c1.1992-1.1992 2.3984-2.3984 3.6016-3.6016 1.1992-1.1992 2.3984-2.3984 3.6016-3.6016 1.1992-1.1992 2.3984-2.3984 2.3984-3.6016 3.6016-4.8008 7.1992-9.6016 9.6016-14.398v-1.1992c1.1992-1.1992 2.3984-3.6016 2.3984-6 1.1992-2.3984 2.3984-4.8008 3.6016-6 1.1992-2.3984 2.3984-4.8008 2.3984-7.1992 3.6016-10.801 6-22.801 6-34.801 2.4023-18.012-2.3984-36.012-11.996-51.613zm-222 152.4c-8.3984 20.398-18 39.602-28.801 58.801s-22.801 37.199-37.199 54c-7.1992 8.3984-14.398 18-22.801 25.199-8.3984-8.3984-15.602-16.801-22.801-25.199-12-15.598-24-33.598-36-52.801-10.801-19.199-20.398-38.398-28.801-58.801-4.8008-10.801-7.1992-21.602-10.801-32.398 10.801-2.3984 21.602-4.8008 33.602-7.1992 21.602-3.6016 43.199-4.8008 66-4.8008s43.199 1.1992 64.801 4.8008c10.801 1.1992 22.801 3.6016 33.602 7.1992-2.4023 10.801-6.0039 21.602-10.801 31.199z"/>
</svg>
