<?xml version="1.0" encoding="UTF-8"?>
<svg version="1.1" xmlns="http://www.w3.org/2000/svg" width="568" height="495">
<path d="M0 0 C187.44 0 374.88 0 568 0 C568 163.35 568 326.7 568 495 C380.56 495 193.12 495 0 495 C0 331.65 0 168.3 0 0 Z " fill="#F1F1F3" transform="translate(0,0)"/>
<path d="M0 0 C0 0.66 0 1.32 0 2 C0.69867188 2.20496094 1.39734375 2.40992187 2.1171875 2.62109375 C3.48230469 3.02521484 3.48230469 3.02521484 4.875 3.4375 C5.77992188 3.70433594 6.68484375 3.97117187 7.6171875 4.24609375 C10 5 10 5 12 6 C12 6.66 12 7.32 12 8 C12.70769531 8.11601563 13.41539062 8.23203125 14.14453125 8.3515625 C17.20569723 9.046711 19.81656566 10.11010236 22.6875 11.375 C28.04647698 13.6594779 33.39094186 15.45236514 39 17 C40.07378906 17.31453125 41.14757812 17.6290625 42.25390625 17.953125 C46.35777461 19.09998289 50.47193875 20.11271295 54.625 21.0625 C55.34300781 21.23587891 56.06101563 21.40925781 56.80078125 21.58789062 C68.12105311 24.16606772 79.70152071 24.16504478 91.25585938 24.13037109 C93.36595905 24.12502291 95.47584431 24.13034829 97.5859375 24.13671875 C115.48119344 24.19922079 115.48119344 24.19922079 133 21 C136.21793579 20.40418707 139.45090304 19.92030728 142.6875 19.4375 C149.86881825 18.36213029 149.86881825 18.36213029 157 17 C157 16.34 157 15.68 157 15 C158.10859375 14.60167969 159.2171875 14.20335938 160.359375 13.79296875 C161.82304586 13.25816594 163.28658043 12.72299003 164.75 12.1875 C165.84441406 11.79594727 165.84441406 11.79594727 166.9609375 11.39648438 C170.79139108 9.98618101 173.80322175 8.58722308 177 6 C178.89355268 4.93690543 180.81273442 3.91867985 182.75 2.9375 C183.73484375 2.43089844 184.7196875 1.92429687 185.734375 1.40234375 C193.38273372 -1.8820591 200.21357467 -2.31429127 208.4375 -2.25 C209.42298828 -2.25773437 210.40847656 -2.26546875 211.42382812 -2.2734375 C220.4654629 -2.24947028 227.9315099 -0.812111 236.0625 3.125 C237.75052734 3.93324219 237.75052734 3.93324219 239.47265625 4.7578125 C240.30667969 5.16773437 241.14070313 5.57765625 242 6 C242 6.66 242 7.32 242 8 C242.58136719 8.26683594 243.16273438 8.53367187 243.76171875 8.80859375 C253.25453526 13.8614891 261.22618211 24.01764301 265 34 C267.92362821 46.73024365 267.23367459 62.64854568 263 75 C262.34 75.66 261.68 76.32 261 77 C260.5875 78.03125 260.175 79.0625 259.75 80.125 C257.8902657 84.64283939 255.04280029 88.2156127 252 92 C251.52820313 92.60714844 251.05640625 93.21429688 250.5703125 93.83984375 C249.43286266 95.27006914 248.22245628 96.64171525 247 98 C246.34 98 245.68 98 245 98 C244.67 98.99 244.34 99.98 244 101 C242.07421875 102.28125 242.07421875 102.28125 239.6875 103.5 C237.23096348 104.76684198 235.03173124 105.97575848 232.83203125 107.65625 C231 109 231 109 229 109 C229 109.66 229 110.32 229 111 C227.5390262 112.09573035 226.02706259 113.12342659 224.5 114.125 C210.60925968 124.02907997 199.67358152 137.07481969 190 151 C189.36320312 151.91007813 188.72640625 152.82015625 188.0703125 153.7578125 C183.35819152 160.67361194 179.45163181 167.94512301 175.75 175.4375 C175.38648438 176.16904297 175.02296875 176.90058594 174.6484375 177.65429688 C173.76376783 179.43527661 172.88161708 181.21750721 172 183 C171.34 183 170.68 183 170 183 C169.80664062 183.85464844 169.61328125 184.70929688 169.4140625 185.58984375 C169.15367187 186.69457031 168.89328125 187.79929687 168.625 188.9375 C168.36976563 190.03964844 168.11453125 191.14179688 167.8515625 192.27734375 C167.57054687 193.17582031 167.28953125 194.07429687 167 195 C166.34 195.33 165.68 195.66 165 196 C163.90474063 198.43153681 162.95389444 200.80548802 162.0625 203.3125 C161.79743652 204.05491943 161.53237305 204.79733887 161.25927734 205.56225586 C158.25250659 214.4929379 157.09935988 223.674728 156 233 C155.34 233 154.68 233 154 233 C153.98018066 233.82612793 153.96036133 234.65225586 153.93994141 235.50341797 C153.86108928 238.61611674 153.7743779 241.72847735 153.68261719 244.84082031 C153.62624001 246.8312213 153.57864607 248.8218649 153.53125 250.8125 C153.31116531 258.07529475 152.77136266 264.94160895 151 272 C150.34 272 149.68 272 149 272 C148.814375 272.94875 148.62875 273.8975 148.4375 274.875 C145.46181276 285.12458939 136.34243537 294.97205388 127.2890625 300.26953125 C112.16095449 308.53519723 93.4324653 311.030716 76.5625 306.6875 C73.06409494 305.52136498 70.01603094 304.15430781 67 302 C66.030625 301.38125 65.06125 300.7625 64.0625 300.125 C58.28779818 296.11806404 53.09585775 291.76615435 49 286 C49 285.34 49 284.68 49 284 C48.34 284 47.68 284 47 284 C41.01015871 271.75028359 37.76681809 260.9960456 37.43481445 247.39135742 C37.12759666 237.7781081 35.32539006 228.53325277 33.35131836 219.14038086 C33 217 33 217 33 213 C32.34 213 31.68 213 31 213 C30.68546875 211.87722656 30.3709375 210.75445312 30.046875 209.59765625 C27.3997299 200.28428208 24.68867685 191.5120863 19.75 183.125 C18 180 18 180 18 177 C17.34 177 16.68 177 16 177 C13 171.375 13 171.375 13 168 C12.34 168 11.68 168 11 168 C10.32845067 166.71086513 9.66291141 165.41859796 9 164.125 C8.62875 163.40570313 8.2575 162.68640625 7.875 161.9453125 C7 160 7 160 7 158 C6.01 157.67 5.02 157.34 4 157 C2.96154399 155.28005724 1.92909239 153.55441187 0.984375 151.78125 C-0.02910082 149.84743659 -0.02910082 149.84743659 -1.75 147.6875 C-3 146 -3 146 -3 144 C-3.99 143.67 -4.98 143.34 -6 143 C-6 142.34 -6 141.68 -6 141 C-6.99 140.67 -7.98 140.34 -9 140 C-10.4296875 138.328125 -10.4296875 138.328125 -11.875 136.25 C-14.33750322 132.8366292 -16.93629419 129.90245814 -20 127 C-20.928125 126.0409375 -20.928125 126.0409375 -21.875 125.0625 C-29.80754331 117.36326679 -38.88855843 110.99036697 -48.12890625 104.95703125 C-60.97423056 96.20123876 -73.88016407 82.81650846 -77 67 C-77.09139853 65.15668141 -77.13065627 63.31042562 -77.1328125 61.46484375 C-77.13410156 60.40845703 -77.13539062 59.35207031 -77.13671875 58.26367188 C-77.13285156 57.16603516 -77.12898438 56.06839844 -77.125 54.9375 C-77.12886719 53.83599609 -77.13273437 52.73449219 -77.13671875 51.59960938 C-77.13542969 50.54451172 -77.13414063 49.48941406 -77.1328125 48.40234375 C-77.13168457 47.43804443 -77.13055664 46.47374512 -77.12939453 45.48022461 C-77 43 -77 43 -76 40 C-75.34 40 -74.68 40 -74 40 C-73.896875 38.80375 -73.79375 37.6075 -73.6875 36.375 C-72.57931449 27.63264763 -67.13054582 20.98797499 -61 15 C-60.48566406 14.35675781 -59.97132813 13.71351562 -59.44140625 13.05078125 C-55.31882754 7.8999381 -51.38830906 4.88182747 -45 3 C-44.01 3 -43.02 3 -42 3 C-42 2.34 -42 1.68 -42 1 C-28.59815957 -2.07583223 -13.38893914 -4.46297971 0 0 Z " fill="#010101" transform="translate(191,92)"/>
<path d="M0 0 C-1.24524088 5.3663952 -2.78570826 10.32252411 -4.875 15.4375 C-5.13966064 16.08638184 -5.40432129 16.73526367 -5.67700195 17.40380859 C-8.4574167 24.18460737 -11.20366235 30.72778997 -15 37 C-16.06104743 39.31191527 -17.03110879 41.64697849 -18 44 C-18.66 44 -19.32 44 -20 44 C-20.061875 44.66 -20.12375 45.32 -20.1875 46 C-21.15655586 49.57805242 -22.82020787 52.15397882 -24.84375 55.23046875 C-26.04630158 56.99687395 -26.04630158 56.99687395 -27 59 C-27.66 59 -28.32 59 -29 59 C-29.25910156 59.71929687 -29.51820313 60.43859375 -29.78515625 61.1796875 C-31.05683409 64.1319428 -32.57689702 66.50815193 -34.4375 69.125 C-35.33275391 70.39730469 -35.33275391 70.39730469 -36.24609375 71.6953125 C-37.73351937 73.64983615 -39.25870972 75.28296167 -41 77 C-41.66 77.99 -42.32 78.98 -43 80 C-43.66 80 -44.32 80 -45 80 C-45.226875 80.556875 -45.45375 81.11375 -45.6875 81.6875 C-47.35896766 84.63246684 -49.55276352 86.68156544 -52 89 C-56.25350171 87.42870643 -58.65208382 84.21552087 -61.4375 80.8125 C-61.92323486 80.22750732 -62.40896973 79.64251465 -62.90942383 79.03979492 C-72 68.0144674 -72 68.0144674 -72 65 C-73.485 64.505 -73.485 64.505 -75 64 C-76.5 61.671875 -76.5 61.671875 -78 58.75 C-79.49765296 55.86389795 -80.97934894 53.03346237 -82.6875 50.265625 C-84 48 -84 48 -84 46 C-84.66 46 -85.32 46 -86 46 C-88.60179935 40.56753932 -91.18312456 35.12606712 -93.7421875 29.67333984 C-94.55538737 27.94497443 -95.37281183 26.21858763 -96.1953125 24.49462891 C-104 8.09881218 -104 8.09881218 -104 -1 C-70.63188558 -8.91785766 -33.15415528 -8.9511874 0 0 Z " fill="#EFEFF1" transform="translate(339,182)"/>
<path d="M0 0 C0.66 0.33 1.32 0.66 2 1 C-2.07789615 5.85728926 -6.35900185 10.48787426 -10.8125 15 C-11.53240112 15.73923706 -11.53240112 15.73923706 -12.2668457 16.4934082 C-13.47235051 17.70233107 -14.73236351 18.85639427 -16 20 C-16.66 20 -17.32 20 -18 20 C-16.5735422 16.7413364 -14.83295838 14.5975146 -12.3046875 12.109375 C-11.23154297 11.04589844 -11.23154297 11.04589844 -10.13671875 9.9609375 C-9.39035156 9.23132813 -8.64398438 8.50171875 -7.875 7.75 C-7.12089844 7.00492188 -6.36679687 6.25984375 -5.58984375 5.4921875 C-3.73099228 3.6568658 -1.86762995 1.8263809 0 0 Z " fill="#CCCCCE" transform="translate(410,209)"/>
</svg>
