<svg viewBox="0 0 3412 648" fill="none" xmlns="http://www.w3.org/2000/svg">
<path fill-rule="evenodd" clip-rule="evenodd" d="M1661.58 548.51H1496.42L1342.2 113.982L1283 104.525V9.95418H1554.62V104.027L1501.89 113.982L1571.53 339.957L1583.47 381.269H1586.46L1600.39 339.957L1682.47 114.48L1618.3 104.027V9.95418H1889.42V104.525L1828.73 115.476L1661.58 548.51ZM1921.76 296.155V276.743C1921.76 222.987 1931.54 175.287 1951.11 133.643C1970.67 91.9987 1998.86 59.3139 2035.68 35.5883C2072.49 11.8628 2116.6 0 2168.01 0C2216.76 0 2257.88 9.45706 2291.38 28.3712C2324.88 47.2853 2350.33 74.9096 2367.74 111.244C2385.15 147.579 2393.86 191.795 2393.86 243.892V328.508H2086.92L2086.42 331.495C2088.41 352.068 2094.13 370.236 2103.58 385.998C2113.04 401.759 2126.14 414.286 2142.88 423.577C2159.63 432.868 2180.11 437.514 2204.32 437.514C2229.2 437.514 2252.83 434.527 2275.21 428.555C2297.6 422.582 2320.23 413.29 2343.12 400.681L2382.91 497.74C2359.7 515.327 2330.93 529.928 2296.6 541.542C2262.28 553.155 2223.56 558.962 2180.44 558.962C2128.37 558.962 2082.94 547.597 2044.13 524.867C2005.33 502.137 1975.23 470.945 1953.84 431.292C1932.45 391.639 1921.76 346.593 1921.76 296.155ZM2764.97 548.51H2472.96V454.436L2539.12 439.007V119.955L2463.5 104.525V9.95418H2688.36L2693.34 76.1543L2694.33 89.0952C2706.94 58.8987 2722.52 36.5003 2741.1 21.9002C2759.67 7.30007 2782.55 0 2809.75 0C2817.71 0 2826.74 0.663612 2836.86 1.99084C2846.97 3.31806 2856.51 5.30889 2865.46 7.96334L2849.05 154.299L2775.92 150.815C2756.68 149.82 2741.43 152.474 2730.15 158.779C2718.88 165.084 2708.26 174.707 2698.31 187.648V439.007L2764.97 454.436V548.51ZM2896.31 284.209V274.255C2896.31 220.499 2906.51 173.047 2926.9 131.901C2947.3 90.7541 2976.73 58.4838 3015.2 35.0899C3053.67 11.6966 3099.94 0 3154 0C3208.06 0 3254.32 11.6137 3292.79 34.8411C3331.27 58.0693 3360.7 90.2566 3381.1 131.403C3401.49 172.55 3411.69 220.167 3411.69 274.255V284.209C3411.69 338.297 3401.49 385.997 3381.1 427.31C3360.7 468.622 3331.35 500.893 3293.04 524.121C3254.74 547.348 3208.72 558.962 3154.99 558.962C3100.6 558.962 3054.09 547.431 3015.45 524.37C2976.82 501.307 2947.3 469.12 2926.9 427.807C2906.51 386.495 2896.31 338.629 2896.31 284.209ZM3253.49 284.209V274.255C3253.49 244.059 3250.09 217.595 3243.3 194.865C3236.5 172.135 3225.8 154.299 3211.21 141.357C3196.62 128.416 3177.55 121.946 3154 121.946C3130.78 121.946 3111.88 128.416 3097.29 141.357C3082.69 154.299 3072.08 172.135 3065.45 194.865C3058.82 217.595 3055.5 244.059 3055.5 274.255V284.209C3055.5 315.401 3058.82 342.528 3065.45 365.59C3072.08 388.652 3082.69 406.405 3097.29 418.848C3111.88 431.292 3131.12 437.514 3154.99 437.514C3178.21 437.514 3197.03 431.209 3211.46 418.599C3225.88 405.99 3236.5 388.237 3243.3 365.341C3250.09 342.445 3253.49 315.401 3253.49 284.209ZM2085.92 223.983L2087.42 226.472H2246.61V213.53C2246.61 192.957 2244.2 175.453 2239.39 161.019C2234.58 146.584 2226.63 135.551 2215.51 127.919C2204.4 120.287 2189.73 116.47 2171.49 116.47C2152.92 116.47 2137.66 121.116 2125.72 130.407C2113.78 139.699 2104.74 152.474 2098.61 168.734C2092.47 184.993 2088.24 203.41 2085.92 223.983Z" fill="currentColor"/>
<path d="M163.245 7.41356C170.511 7.58662 199.155 27.1203 210.217 30.9701C261.38 48.7768 309.378 61.592 365.286 57.3984C377.118 56.5109 473.805 45.7257 488.297 38.4771C494.509 36.4067 503.203 33.9025 508.92 31.0146C545.133 12.7185 631.579 -22.1221 664.28 19.839C679.654 39.5666 704.92 53.8049 711.899 77.8243C728.47 134.853 702.213 181.581 668.421 216.575C660.571 224.704 645.278 226.236 637.365 233.142C607.561 259.155 583.387 290.991 556.62 320.12C530.316 348.743 521.735 384.894 504.86 413.311C469.178 473.397 502.584 595.685 426.783 629.243C349.493 663.461 310.981 649.256 264.694 599.692C232.849 565.593 248.174 491.893 231.568 448.516C225.579 432.874 213.291 394.842 200.512 373.964C189.451 355.893 174.071 324.42 157.033 305.624C134.132 280.359 88.2179 250.707 63.5988 224.77C40.9381 200.895 22.0844 173.553 3.8242 146.164C-12.6428 121.465 28.7009 43.05 40.1774 34.4405C49.8915 27.1531 59.556 19.6905 70.0768 13.6263C93.4254 0.168122 134.259 6.72326 163.245 7.41356Z" fill="currentColor"/>
<path d="M470.419 198.41C481.454 200.24 463.783 219.779 460.314 230.415C455.21 246.065 446.246 260.182 439.327 275.118C427.094 301.526 402.748 361.009 376.106 377.741C369.434 381.931 370.498 383.362 362.632 382.925C352.441 382.358 345.689 370.764 340.019 362.275C315.205 325.121 285.381 292.132 271.024 249.192C265.181 231.718 236.993 200.883 254.846 196.337C324.485 178.601 399.526 186.652 470.419 198.41Z" fill="white"/>
</svg>