<svg width="717" height="648" viewBox="0 0 717 648" fill="none" xmlns="http://www.w3.org/2000/svg">
<path d="M163.245 7.41356C170.511 7.58662 199.155 27.1203 210.217 30.9701C261.38 48.7768 309.378 61.592 365.286 57.3984C377.118 56.5109 473.805 45.7257 488.297 38.4771C494.509 36.4067 503.203 33.9025 508.92 31.0146C545.133 12.7185 631.579 -22.1221 664.28 19.839C679.654 39.5666 704.92 53.8049 711.899 77.8243C728.47 134.853 702.213 181.581 668.421 216.575C660.571 224.704 645.278 226.236 637.365 233.142C607.561 259.155 583.387 290.991 556.62 320.12C530.316 348.743 521.735 384.894 504.86 413.311C469.178 473.397 502.584 595.685 426.783 629.243C349.493 663.461 310.981 649.256 264.694 599.692C232.849 565.593 248.174 491.893 231.568 448.516C225.579 432.874 213.291 394.842 200.512 373.964C189.451 355.893 174.071 324.42 157.033 305.624C134.132 280.359 88.2179 250.707 63.5988 224.77C40.9381 200.895 22.0844 173.553 3.8242 146.164C-12.6428 121.465 28.7009 43.05 40.1774 34.4405C49.8915 27.1531 59.556 19.6905 70.0768 13.6263C93.4254 0.168122 134.259 6.72326 163.245 7.41356Z" fill="currentColor"/>
<path d="M470.419 198.41C481.454 200.24 463.783 219.779 460.314 230.415C455.21 246.065 446.246 260.182 439.327 275.118C427.094 301.526 402.748 361.009 376.106 377.741C369.434 381.931 370.498 383.362 362.632 382.925C352.441 382.358 345.689 370.764 340.019 362.275C315.205 325.121 285.381 292.132 271.024 249.192C265.181 231.718 236.993 200.883 254.846 196.337C324.485 178.601 399.526 186.652 470.419 198.41Z" fill="white"/>
</svg>