<svg width="3058" height="648" viewBox="0 0 3058 648" fill="none" xmlns="http://www.w3.org/2000/svg">
<path d="M163.245 7.41356C170.511 7.58662 199.155 27.1203 210.217 30.9701C261.38 48.7768 309.378 61.592 365.286 57.3984C377.118 56.5109 473.805 45.7257 488.297 38.4771C494.509 36.4067 503.203 33.9025 508.92 31.0146C545.133 12.7185 631.579 -22.1221 664.28 19.839C679.654 39.5666 704.92 53.8049 711.899 77.8243C728.47 134.853 702.213 181.581 668.421 216.575C660.571 224.704 645.278 226.236 637.365 233.142C607.561 259.155 583.387 290.991 556.62 320.12C530.316 348.743 521.735 384.894 504.86 413.311C469.178 473.397 502.584 595.685 426.783 629.243C349.493 663.461 310.981 649.256 264.694 599.692C232.849 565.593 248.174 491.893 231.568 448.516C225.579 432.874 213.291 394.842 200.512 373.964C189.451 355.893 174.071 324.42 157.033 305.624C134.132 280.359 88.2179 250.707 63.5988 224.77C40.9381 200.895 22.0844 173.553 3.8242 146.164C-12.6428 121.465 28.7009 43.05 40.1774 34.4405C49.8915 27.1531 59.556 19.6905 70.0768 13.6263C93.4254 0.168122 134.259 6.72326 163.245 7.41356Z" fill="currentColor"/>
<path d="M470.419 198.41C481.454 200.24 463.783 219.779 460.314 230.415C455.21 246.065 446.246 260.182 439.327 275.118C427.094 301.526 402.748 361.009 376.106 377.741C369.434 381.931 370.498 383.362 362.632 382.925C352.441 382.358 345.689 370.764 340.019 362.275C315.205 325.121 285.381 292.132 271.024 249.192C265.181 231.718 236.993 200.883 254.846 196.337C324.485 178.601 399.526 186.652 470.419 198.41Z" fill="white"/>
<path fill-rule="evenodd" clip-rule="evenodd" d="M1100.24 96.5504L1284.5 95.2752C1300.22 95.2752 1312.23 98.0381 1320.52 103.564C1328.81 109.09 1336.14 120.141 1342.52 136.719L1404.36 294.842C1406.91 301.643 1411.59 305.044 1418.39 305.044C1425.19 305.044 1430.29 301.643 1433.69 294.842L1517.21 113.765C1522.74 102.289 1528.69 95.9128 1535.06 94.6376C1537.61 94.2125 1542.08 94 1548.45 94L1621.77 95.2752C1629.85 95.2752 1635.59 99.1008 1638.99 106.752C1640.26 109.727 1640.9 113.34 1640.9 117.591C1640.9 121.842 1636.12 133.531 1626.55 152.659C1616.99 171.787 1592.12 224.919 1551.96 312.057C1511.79 399.195 1480.44 464.442 1457.92 507.799C1450.27 522.251 1436.98 533.515 1418.07 541.591C1399.15 549.668 1378.65 553.706 1356.54 553.706C1334.44 553.706 1314.25 549.88 1295.97 542.229C1277.7 534.578 1264.52 523.526 1256.44 509.074C1192.69 391.332 1133.39 275.714 1078.56 162.223C1072.19 148.621 1069 138.207 1069 130.98C1069 108.027 1079.41 96.5504 1100.24 96.5504ZM1790.09 235.865C1809.64 226.301 1829.72 219.394 1850.34 215.143C1870.95 210.892 1896.46 208.767 1926.85 208.767C1957.24 208.767 1986.25 212.486 2013.88 219.925C2041.5 227.364 2062.12 237.459 2075.72 250.211C2099.52 273.589 2111.42 301.006 2111.42 332.46C2111.42 381.768 2069.77 406.421 1986.46 406.421C1957.13 406.421 1926.74 403.658 1895.29 398.133C1896.56 426.187 1901.77 445.952 1910.91 457.429C1920.05 468.906 1936.3 474.644 1959.68 474.644C1983.06 474.644 2002.4 472.094 2017.7 466.993C2033 461.892 2045.33 456.685 2054.68 451.372C2064.03 446.058 2072 443.402 2078.59 443.402C2085.18 443.402 2090.81 446.377 2095.48 452.328C2102.71 459.979 2106.32 470.5 2106.32 483.889C2106.32 497.279 2103.67 506.417 2098.35 511.306C2093.04 516.194 2084.65 520.976 2073.17 525.652C2032.79 542.654 1975.41 551.155 1901.03 551.155C1839.39 551.155 1788.71 536.384 1748.97 506.842C1709.22 477.301 1689.35 437.451 1689.35 387.293C1689.35 363.065 1693.82 340.855 1702.74 320.665C1711.67 300.474 1723.57 283.684 1738.45 270.295C1753.32 256.905 1770.54 245.429 1790.09 235.865ZM2215.98 216.418H2340.31C2354.76 216.418 2364.75 219.5 2370.28 225.663C2375.8 231.827 2378.56 241.072 2378.56 253.399V276.352C2402.37 231.295 2441.05 208.767 2494.6 208.767C2512.45 208.767 2527.12 214.505 2538.59 225.982C2550.07 237.459 2555.81 252.761 2555.81 271.889C2555.81 291.017 2550.71 310.038 2540.51 328.954C2530.31 347.869 2516.07 357.327 2497.79 357.327C2489.29 357.327 2477.39 352.97 2462.09 344.256C2446.78 335.542 2434.46 331.185 2425.11 331.185C2415.76 331.185 2406.09 334.586 2396.1 341.387C2386.11 348.188 2381.11 359.452 2381.11 375.179C2381.11 443.614 2379.84 488.884 2377.29 510.987C2376.01 518.213 2372.4 524.589 2366.45 530.115C2360.5 535.641 2349.98 538.935 2334.89 539.997C2319.8 541.06 2304.82 541.591 2289.94 541.591C2275.07 541.591 2249.78 540.741 2214.07 539.041C2203.87 538.616 2195.79 535.641 2189.84 530.115C2183.89 524.589 2180.49 518.213 2179.64 510.987C2176.67 483.358 2175.18 441.064 2175.18 384.106C2175.18 327.147 2176.03 288.148 2177.73 267.107C2179.43 246.066 2182.62 232.358 2187.29 225.982C2191.97 219.606 2201.53 216.418 2215.98 216.418ZM3056.94 381.555C3056.94 497.172 2977.67 554.981 2819.12 554.981C2660.58 554.981 2581.31 497.172 2581.31 381.555C2581.31 326.722 2601.5 284.216 2641.88 254.036C2682.26 223.857 2741.34 208.767 2819.12 208.767C2896.91 208.767 2955.99 223.857 2996.37 254.036C3036.75 284.216 3056.94 326.722 3056.94 381.555ZM2781.51 381.555C2781.51 429.162 2794.05 452.966 2819.12 452.966C2844.2 452.966 2856.74 429.162 2856.74 381.555C2856.74 359.877 2854.19 343.193 2849.09 331.504C2843.99 319.815 2834 313.97 2819.12 313.97C2804.25 313.97 2794.26 319.815 2789.16 331.504C2784.06 343.193 2781.51 359.877 2781.51 381.555ZM1938 281.453C1912.08 281.453 1898.05 302.493 1895.93 344.575C1916.33 346.275 1926.95 347.125 1927.8 347.125C1955.86 347.125 1969.88 337.774 1969.88 319.071C1969.88 293.992 1959.26 281.453 1938 281.453Z" fill="currentColor" stroke="currentColor" stroke-width="0.944882" stroke-linecap="round"/>
</svg>